<!DOCTYPE svg PUBLIC "-//W3C//DTD SVG 1.1//EN" "http://www.w3.org/Graphics/SVG/1.1/DTD/svg11.dtd">
<!-- Uploaded to: SVG Repo, www.svgrepo.com, Transformed by: SVG Repo Mixer Tools -->
<svg width="800px" height="800px" viewBox="0 0 24 24" fill="none" xmlns="http://www.w3.org/2000/svg" stroke="#3e3178">
<g id="SVGRepo_bgCarrier" stroke-width="0"/>
<g id="SVGRepo_tracerCarrier" stroke-linecap="round" stroke-linejoin="round"/>
<g id="SVGRepo_iconCarrier"> <path d="M10 3.25C9.0335 3.25 8.25 4.0335 8.25 5V8.25H5C4.0335 8.25 3.25 9.0335 3.25 10V14C3.25 14.9665 4.0335 15.75 5 15.75H8.25V19C8.25 19.9665 9.0335 20.75 10 20.75H14C14.9665 20.75 15.75 19.9665 15.75 19V15.75H19C19.9665 15.75 20.75 14.9665 20.75 14V10C20.75 9.0335 19.9665 8.25 19 8.25H15.75V5C15.75 4.0335 14.9665 3.25 14 3.25H10Z" fill="#ffffff"/> </g>
</svg>